# xmcd
#
# Track frame offsets:
#	150
#	14103
#	33428
#	50218
#	69593
#	89728
#	109875
#	126941
#	143248
#	163514
#	182390
#
# Disc length: 2698 seconds
# Revision: 0
# Processed by: cddbd v1.5.2PL0 Copyright (c) Steve Scherf et al.
# Submitted via: dBpowerAMP V12.0
#
DISCID=a20a880b
DTITLE=Morgan Myles - Milestone
DYEAR=1900
DGENRE=Country
TTITLE0=Just Lost Me
TTITLE1=Should've Kept Us A Memory
TTITLE2=Windows
TTITLE3=It Hurts
TTITLE4=Walls
TTITLE5=Man Enough
TTITLE6=Missing You When You're Right Here
TTITLE7=Wrong Woman
TTITLE8=What Are You Afraid of
TTITLE9=With Eyes Closed
TTITLE10=Under Covers
EXTD=
EXTT0=
EXTT1=
EXTT2=
EXTT3=
EXTT4=
EXTT5=
EXTT6=
EXTT7=
EXTT8=
EXTT9=
EXTT10=
PLAYORDER=
